<svg xmlns="http://www.w3.org/2000/svg" viewBox="0 0 512 512" width="100%" height="100%">
  <defs>
    <!-- Background Gradient -->
    <radialGradient id="bgGradient" cx="50%" cy="40%" r="60%">
      <stop offset="0%" stop-color="#252627" />
      <stop offset="100%" stop-color="#121314" />
    </radialGradient>

    <!-- Main Gold Gradient for the Hexagon and Upper Hammer -->
    <linearGradient id="goldLinear" x1="0%" y1="0%" x2="100%" y2="100%">
      <stop offset="0%" stop-color="#FCD365" />
      <stop offset="30%" stop-color="#E59E30" />
      <stop offset="70%" stop-color="#B8731B" />
      <stop offset="100%" stop-color="#8C500C" />
    </linearGradient>

    <!-- Highlight Gradient for 3D/Bevel effect on the lower anvil -->
    <linearGradient id="anvilLeft" x1="0%" y1="0%" x2="100%" y2="0%">
      <stop offset="0%" stop-color="#E59E30" />
      <stop offset="100%" stop-color="#F9CD60" />
    </linearGradient>
    
    <linearGradient id="anvilRight" x1="0%" y1="0%" x2="100%" y2="0%">
      <stop offset="0%" stop-color="#AB6916" />
      <stop offset="100%" stop-color="#D99229" />
    </linearGradient>

    <!-- Subtle Drop Shadow for the main emblem -->
    <filter id="dropShadow" x="-10%" y="-10%" width="120%" height="120%">
      <feDropShadow dx="0" dy="8" stdDeviation="6" flood-color="#000000" flood-opacity="0.6"/>
    </filter>

    <!-- Inner Shadow effect for the Hexagon cutouts -->
    <filter id="innerShadow" x="-20%" y="-20%" width="140%" height="140%">
      <feComponentTransfer in="SourceAlpha">
        <feFuncA type="linear" slope="0.7"/>
      </feComponentTransfer>
      <feGaussianBlur stdDeviation="3" result="blur"/>
      <feOffset dx="0" dy="4"/>
      <feComposite operator="out" in2="SourceGraphic"/>
      <feColorMatrix type="matrix" values="0 0 0 0 0  0 0 0 0 0  0 0 0 0 0  0 0 0 0.8 0"/>
      <feBlend mode="multiply" in2="SourceGraphic"/>
    </filter>
  </defs>

  <!-- Base App Icon Squircle Background -->
  <rect x="24" y="24" width="464" height="464" rx="105" ry="105" fill="url(#bgGradient)" />

  <!-- Main Emblem Group with Shadow -->
  <g filter="url(#dropShadow)">
    
    <!-- Outer Hexagonal Border -->
    <path d="M 256,76 
             L 416,168 
             L 416,334
             L 370,361
             L 370,201
             L 256,135
             L 142,201
             L 142,352
             L 212,392
             L 190,405
             L 96,351 
             L 96,168 
             Z" 
          fill="url(#goldLinear)" />

    <!-- Top Hammer / T-Shape Element -->
    <path d="M 155,198 
             L 357,198 
             L 357,236 
             C 320,236 295,242 285,274
             L 285,294
             L 227,294
             L 227,274
             C 217,242 192,236 155,236
             Z" 
          fill="url(#goldLinear)" />

    <!-- Lower Anvil Element (Left Side - Highlighted) -->
    <path d="M 256,436 
             L 182,393
             C 210,380 216,346 151,346
             L 256,346
             Z" 
          fill="url(#anvilLeft)" />

    <!-- Lower Anvil Element (Right Side - Shadowed) -->
    <path d="M 256,436 
             L 330,393
             C 302,380 296,346 361,346
             L 256,346
             Z" 
          fill="url(#anvilRight)" />
          
  </g>

  <!-- Decorative Sparkle in the Bottom Right Corner -->
  <path d="M 445,445 
           C 445,452 448,455 455,455 
           C 448,455 445,458 445,465 
           C 445,458 442,455 435,455 
           C 442,455 445,452 445,445 Z" 
        fill="#ffffff" opacity="0.15" />
</svg>
