<?xml version="1.0" encoding="UTF-8"?>
<svg xmlns="http://www.w3.org/2000/svg" viewBox="0 0 1254 1254" width="1254" height="1254">
  <rect width="1254" height="1254" fill="#191918"/>
  <g fill="#E69A20">
    <path d="M627 138 L999 384 L999 850 L892 928 L892 442 L627 266 L362 442 L362 928 L255 850 L255 384 Z"/>
    <path d="M690.0 713.5 C690.0 713.5 563.0 713.5 563.0 713.5 C563.0 713.5 561.8 657.9 558.5 641.0 C555.2 624.1 549.6 620.8 543.5 612.0 C537.4 603.2 528.9 594.6 522.0 588.5 C515.1 582.4 509.5 579.3 502.0 575.5 C494.5 571.7 487.2 568.3 477.0 565.5 C466.8 562.7 453.8 559.9 441.0 558.5 C428.2 557.1 400.5 557.0 400.5 557.0 C400.5 557.0 400.5 462.0 400.5 462.0 C400.5 462.0 852.0 461.5 852.0 461.5 C852.0 461.5 852.5 557.0 852.5 557.0 C852.5 557.0 824.8 557.1 812.0 558.5 C799.2 559.9 786.2 562.7 776.0 565.5 C765.8 568.3 758.5 571.7 751.0 575.5 C743.5 579.3 737.9 582.4 731.0 588.5 C724.1 594.6 715.6 603.2 709.5 612.0 C703.4 620.8 697.8 624.1 694.5 641.0 C691.2 657.9 690.0 713.5 690.0 713.5 Z"/>
    <path d="M628.0 1105.5 C628.0 1105.5 442.5 980.0 442.5 980.0 C442.5 980.0 472.2 954.2 479.5 946.0 C486.8 937.8 484.8 937.7 486.5 931.0 C488.2 924.3 491.2 914.8 489.5 906.0 C487.8 897.2 481.1 884.8 476.5 878.0 C471.9 871.2 469.1 870.1 462.0 865.5 C454.9 860.9 445.0 854.7 434.0 850.5 C423.0 846.3 396.0 840.5 396.0 840.5 C396.0 840.5 857.5 841.0 857.5 841.0 C857.5 841.0 830.1 846.4 819.0 850.5 C807.9 854.6 798.1 860.9 791.0 865.5 C783.9 870.1 781.1 871.2 776.5 878.0 C771.9 884.8 765.2 897.2 763.5 906.0 C761.8 914.8 764.8 924.3 766.5 931.0 C768.2 937.7 766.2 937.8 773.5 946.0 C780.8 954.2 810.5 980.0 810.5 980.0 C810.5 980.0 628.0 1105.5 628.0 1105.5 Z"/>
  </g>
</svg>
